<svg viewBox="0 0 250 150" xmlns="http://www.w3.org/2000/svg" fill="none"><path d="M32 112C16 104 20 86 38 84C42 58 74 46 98 60C112 32 156 30 174 54C202 50 224 64 224 88C234 96 236 112 224 120C204 130 62 132 42 124C30 120 24 116 32 112Z" fill="#FFFFFF" stroke="#1B1F1D" stroke-width="4" stroke-linejoin="round" stroke-linecap="round"></path><path d="M175.0 59.2L175.3 58.9L175.7 58.6L176.1 58.4L176.5 58.2L177.0 58.1L177.5 58.1L178.1 58.1L178.6 58.2L179.2 58.4L179.7 58.7L180.2 59.0L180.7 59.4L181.2 59.9L181.6 60.5L181.9 61.1L182.2 61.8L182.4 62.5L182.5 63.3L182.5 64.1L182.4 64.9L182.1 65.8L181.8 66.6L181.4 67.4L180.8 68.1L180.2 68.8L179.5 69.4L178.6 70.0L177.7 70.4L176.8 70.8L175.7 71.0L174.7 71.1L173.6 71.1L172.4 70.9L171.3 70.6L170.2 70.2L169.2 69.6L168.2 68.9L167.3 68.1L166.5 67.1L165.8 66.0L165.2 64.9L164.7 63.6L164.4 62.3L164.3 60.9L164.3 59.5L164.4 58.1L164.8 56.7L165.3 55.3L166.0 54.0L166.9 52.7L167.9 51.6L169.1 50.5L170.4 49.6L171.8 48.9L173.3 48.3L174.9 47.8L176.6 47.6L178.3 47.6L180.0 47.7L181.7 48.1L183.4 48.7L185.0 49.5L186.5 50.5L187.9 51.6L189.2 53.0L190.4 54.5L191.3 56.1L192.1 57.9L192.7 59.8L193.0 61.7" stroke="#1B1F1D" stroke-width="3.6" stroke-linecap="round" fill="none"></path><path d="M68.3 86.1L68.0 86.2L67.7 86.3L67.5 86.5L67.2 86.7L66.9 87.0L66.7 87.3L66.5 87.6L66.3 87.9L66.2 88.3L66.1 88.8L66.0 89.2L66.0 89.7L66.1 90.1L66.2 90.6L66.4 91.1L66.6 91.5L66.9 92.0L67.3 92.4L67.7 92.8L68.1 93.2L68.6 93.5L69.2 93.7L69.8 93.9L70.4 94.1L71.0 94.2L71.7 94.2L72.4 94.1L73.1 93.9L73.8 93.7L74.4 93.4L75.1 93.0L75.7 92.6L76.2 92.1L76.8 91.5L77.2 90.8L77.6 90.1L77.9 89.3L78.2 88.5L78.3 87.6L78.4 86.8L78.4 85.9L78.3 85.0L78.0 84.1L77.7 83.2L77.3 82.3L76.8 81.5L76.2 80.7L75.5 80.0L74.7 79.3L73.8 78.8L72.9 78.3L71.9 77.9L70.9 77.6L69.8 77.4L68.7 77.3L67.6 77.4L66.4 77.5L65.3 77.8L64.2 78.2L63.1 78.8L62.1 79.4L61.2 80.2L60.3 81.0L59.5 82.0L58.8 83.1L58.2 84.2L57.7 85.4L57.4 86.7L57.2 88.0L57.1 89.3" stroke="#1B1F1D" stroke-width="3.6" stroke-linecap="round" fill="none"></path></svg>