<svg xmlns="http://www.w3.org/2000/svg" width="114" height="50" fill="none"><g clip-path="url(#a)"><path fill="#3CC48F" d="M41.178 29.317a4.27 4.27 0 0 1-1.764-1.735c-.404-.738-.613-1.605-.613-2.588s.21-1.837.613-2.574a4.23 4.23 0 0 1 1.764-1.72q1.143-.608 2.69-.608c.643 0 1.27.101 1.883.29.613.187 1.106.447 1.48.765l-.792 1.75q-1.234-.825-2.511-.824c-.807 0-1.42.246-1.854.737-.433.492-.642 1.215-.642 2.198s.209 1.706.642 2.198 1.047.737 1.854.737q1.278 0 2.51-.824l.808 1.764c-.389.318-.882.579-1.48.767a6.3 6.3 0 0 1-1.883.289c-1.046-.015-1.943-.217-2.705-.622M49.516 29.476a3.14 3.14 0 0 1-1.33-1.214c-.314-.52-.478-1.143-.478-1.851 0-.709.164-1.33.478-1.851s.762-.925 1.33-1.2 1.24-.42 2.018-.42 1.434.145 2.017.42a3.1 3.1 0 0 1 1.33 1.2c.314.52.479 1.142.479 1.85 0 .71-.165 1.331-.478 1.852-.314.52-.763.94-1.33 1.214q-.853.434-2.018.434-1.166 0-2.018-.434m3.333-3.065c0-1.128-.448-1.692-1.33-1.692s-1.33.564-1.33 1.692.448 1.692 1.33 1.692 1.33-.564 1.33-1.692M61.698 24.92l-1.36.131c-.539.058-.927.203-1.136.42-.21.23-.33.549-.33.968v3.37h-2.51v-6.71h2.376v1.157c.165-.405.419-.723.792-.94.359-.217.807-.333 1.33-.362l.688-.057zM67.976 23.662c.523.492.777 1.244.777 2.27v3.861h-2.347v-.94a1.6 1.6 0 0 1-.657.767c-.314.188-.688.274-1.106.274-.478 0-.912-.086-1.3-.274a2.25 2.25 0 0 1-.912-.781 1.97 1.97 0 0 1-.329-1.128c0-.477.135-.868.389-1.157s.672-.491 1.225-.621c.568-.13 1.33-.189 2.287-.189h.373v-.159c0-.332-.074-.564-.239-.694s-.448-.202-.852-.202c-.313 0-.687.058-1.105.188a6.4 6.4 0 0 0-1.181.463l-.628-1.59a6.3 6.3 0 0 1 1.51-.594 6.7 6.7 0 0 1 1.674-.231q1.636.021 2.42.737m-1.928 4.28c.209-.231.328-.535.328-.896v-.16h-.224c-.597 0-1.03.059-1.285.16s-.374.275-.374.52c0 .203.075.376.21.52.134.131.313.203.523.203.329 0 .612-.115.822-.347M69.919 29.808v-9.6h2.51v9.6zM75.27 29.476a3.14 3.14 0 0 1-1.33-1.214c-.314-.52-.479-1.143-.479-1.851 0-.709.165-1.33.479-1.851a3.1 3.1 0 0 1 1.33-1.2c.568-.275 1.24-.42 2.018-.42s1.434.145 2.017.42a3.1 3.1 0 0 1 1.33 1.2c.314.52.479 1.142.479 1.85 0 .71-.165 1.331-.479 1.852-.314.52-.762.94-1.33 1.214q-.852.434-2.017.434-1.167 0-2.018-.434m3.333-3.065c0-1.128-.449-1.692-1.33-1.692-.882 0-1.33.564-1.33 1.692s.448 1.692 1.33 1.692c.881 0 1.33-.564 1.33-1.692M89.692 23.1v5.884c0 1.114-.344 1.952-1.017 2.516-.687.578-1.688.853-3.019.853-.627 0-1.24-.072-1.823-.217-.598-.144-1.106-.332-1.54-.593l.628-1.648c.434.217.882.39 1.345.506.464.116.897.174 1.316.174.553 0 .971-.116 1.225-.347.27-.232.404-.593.404-1.1v-.52c-.21.304-.508.535-.882.709q-.583.26-1.255.26c-.598 0-1.136-.13-1.6-.405a2.8 2.8 0 0 1-1.09-1.171c-.27-.506-.39-1.085-.39-1.75s.135-1.243.39-1.75a2.9 2.9 0 0 1 1.09-1.17 3.1 3.1 0 0 1 1.6-.42c.463 0 .881.087 1.27.275.388.188.687.434.882.752v-.853h2.466zm-2.825 4.294c.24-.275.359-.636.359-1.114q0-.716-.359-1.128c-.24-.274-.583-.404-1.031-.404-.449 0-.763.13-1.017.404-.239.275-.358.651-.358 1.143 0 .491.12.838.373 1.113.254.275.583.405 1.002.405.448-.014.792-.145 1.031-.42M90.504 19.759h2.616v2.198h-2.616zm.06 10.05v-6.71h2.511v6.695h-2.51zM99.735 26.338l2.944 3.455H99.75L98.3 28.03l-1.45 1.764h-2.914l2.944-3.455-2.78-3.24h2.945l1.255 1.577 1.27-1.576h2.945zM21.45 34.06c5.168 0 9.356-4.053 9.356-9.052 0-5-4.189-9.052-9.356-9.052s-9.356 4.053-9.356 9.052 4.19 9.051 9.356 9.051"></path><path fill="#AEFFDC" d="M21.45 35.057c-5.74 0-10.403-4.512-10.403-10.05S15.71 14.944 21.45 14.944c5.739 0 10.402 4.51 10.402 10.063-.015 5.538-4.678 10.05-10.402 10.05m0-18.118c-4.589 0-8.325 3.615-8.325 8.054s3.736 8.054 8.325 8.054 8.324-3.615 8.324-8.054c0-4.44-3.736-8.054-8.324-8.054"></path></g><defs><clipPath id="a"><path fill="#fff" d="M11.047 14.944h91.633v20.112H11.047z"></path></clipPath></defs></svg>